Coordinates
version=1
nRows=20
nColumns=63
inDegrees=yes

Units are S.I. units (second, meters, Newtons, ...)
If the header above contains a line with 'inDegrees', this indicates whether rotational values are in degrees (yes) or radians (no).

endheader
time	pelvis_tilt	pelvis_list	pelvis_rotation	pelvis_tx	pelvis_ty	pelvis_tz	hip_flexion_r	hip_adduction_r	hip_rotation_r	knee_angle_r	knee_angle_r_beta	ankle_angle_r	subtalar_angle_r	mtp_angle_r	hip_flexion_l	hip_adduction_l	hip_rotation_l	knee_angle_l	knee_angle_l_beta	ankle_angle_l	subtalar_angle_l	mtp_angle_l	L5_S1_Flex_Ext	L5_S1_Lat_Bending	L5_S1_axial_rotation	L4_L5_Flex_Ext	L4_L5_Lat_Bending	L4_L5_axial_rotation	L3_L4_Flex_Ext	L3_L4_Lat_Bending	L3_L4_axial_rotation	L2_L3_Flex_Ext	L2_L3_Lat_Bending	L2_L3_axial_rotation	L1_L2_Flex_Ext	L1_L2_Lat_Bending	L1_L2_axial_rotation	L1_T12_Flex_Ext	L1_T12_Lat_Bending	L1_T12_axial_rotation	Abs_r3	Abs_r2	Abs_r1	Abs_t1	Abs_t2	neck_flexion	neck_bending	neck_rotation	arm_flex_r	arm_add_r	arm_rot_r	elbow_flex_r	pro_sup_r	wrist_flex_r	wrist_dev_r	arm_flex_l	arm_add_l	arm_rot_l	elbow_flex_l	pro_sup_l	wrist_flex_l	wrist_dev_l
0.000000	2.997068	-4.645494	83.044105	0.150176	0.976852	0.377818	-1.082690	0.387546	-9.823198	3.853986	0.067265	24.777352	17.059669	0.000000	-0.788190	1.715432	-3.580778	7.731702	0.134944	21.537124	-11.325183	0.000000	0.180588	0.126198	1.162715	0.335370	0.167844	1.235385	0.296688	0.306839	1.235385	0.206394	0.306839	1.017376	0.167694	0.257344	0.944706	0.103188	0.195481	0.872036	1.289924	1.427581	6.466673	0.000000	0.000000	23.496892	-4.318366	1.198377	5.405041	-10.904816	49.144589	57.430520	76.796191	22.703494	10.943987	12.565772	-21.721598	72.117377	62.984704	70.105047	3.923998	-16.203237
0.016949	3.001007	-4.576152	82.823586	0.150647	0.976456	0.378233	-1.461052	0.432155	-9.610593	3.313704	0.057835	24.075101	16.656575	0.000000	-1.044378	1.769825	-2.794470	7.448096	0.129994	20.542511	-12.549202	0.000000	0.169286	0.127799	1.072369	0.314382	0.169973	1.139392	0.278120	0.310732	1.139392	0.193477	0.310732	0.938323	0.157199	0.260609	0.871300	0.096730	0.197961	0.804277	1.209195	1.445693	5.964196	0.000000	0.000000	23.490236	-4.053509	1.907373	6.428109	-10.760769	51.083261	56.421638	77.521453	22.837253	9.197127	11.986882	-21.770325	71.969359	62.982677	65.491228	3.473127	-16.301275
0.033898	3.037600	-4.524300	82.653902	0.150947	0.976140	0.378576	-1.772185	0.499804	-9.440964	2.871689	0.050120	23.483100	16.324346	0.000000	-1.253105	1.780025	-2.171701	7.212551	0.125883	19.787552	-13.480245	0.000000	0.160240	0.133836	0.998418	0.297582	0.178002	1.060820	0.263259	0.325409	1.060820	0.183139	0.325409	0.873616	0.148799	0.272918	0.811215	0.091561	0.207312	0.748814	1.144581	1.513979	5.552903	0.000000	0.000000	23.483944	-3.854713	2.486450	7.236879	-10.679193	52.586099	55.713113	78.255095	23.005890	7.878787	11.535428	-21.853583	71.909652	63.063017	62.026539	3.055483	-16.475065
0.050847	3.103287	-4.488116	82.531218	0.151094	0.975894	0.378852	-2.022149	0.587856	-9.312856	2.519687	0.043977	22.992887	16.057863	0.000000	-1.419688	1.750764	-1.693990	7.018995	0.122505	19.245721	-14.150563	0.000000	0.153224	0.143767	0.939222	0.284552	0.191210	0.997923	0.251731	0.349555	0.997923	0.175119	0.349555	0.821819	0.142283	0.293170	0.763118	0.087552	0.222695	0.704416	1.094461	1.626322	5.223671	0.000000	0.000000	23.478525	-3.714925	2.945468	7.851253	-10.652752	53.701526	55.265431	78.935720	23.190153	6.954199	11.195413	-21.959055	71.917025	63.204034	59.593428	2.673853	-16.711418
0.067797	3.194512	-4.465775	82.451695	0.151105	0.975711	0.379064	-2.217003	0.693674	-9.224813	2.249444	0.039260	22.595999	15.852008	0.000000	-1.549448	1.686777	-1.342858	6.861358	0.119753	18.890494	-14.592405	0.000000	0.148009	0.157052	0.893140	0.274868	0.208880	0.948961	0.243165	0.381857	0.948961	0.169160	0.381857	0.781497	0.137441	0.320261	0.725676	0.084573	0.243274	0.669855	1.057216	1.776607	4.967374	0.000000	0.000000	23.474487	-3.627088	3.294284	8.291136	-10.674110	54.477963	55.039078	79.501932	23.370791	6.388597	10.950843	-22.074423	71.970248	63.384039	58.074341	2.331025	-16.997145
0.084746	3.307714	-4.455455	82.411496	0.150997	0.975581	0.379219	-2.362807	0.814622	-9.175380	2.052703	0.035826	22.283971	15.701661	0.000000	-1.647702	1.592800	-1.099822	6.733569	0.117523	18.695345	-14.838020	0.000000	0.144371	0.173151	0.858531	0.268111	0.230291	0.912189	0.237187	0.420999	0.912189	0.165001	0.420999	0.751214	0.134063	0.353090	0.697556	0.082493	0.268211	0.643898	1.031226	1.958719	4.774890	0.000000	0.000000	23.472340	-3.584148	3.542760	8.576429	-10.735928	54.963831	54.994540	79.892337	23.528550	6.147215	10.785723	-22.187373	72.048091	63.581342	57.351727	2.029786	-17.319058
0.101695	3.439336	-4.455332	82.406784	0.150786	0.975495	0.379321	-2.465622	0.948063	-9.163100	1.921211	0.033531	22.048342	15.601703	0.000000	-1.719769	1.473566	-0.946402	6.629556	0.115708	18.633751	-14.919659	0.000000	0.142081	0.191523	0.833755	0.263859	0.254725	0.885864	0.233425	0.465668	0.885864	0.162385	0.465668	0.729535	0.131937	0.390553	0.677426	0.081185	0.296669	0.625316	1.014871	2.166544	4.637094	0.000000	0.000000	23.472594	-3.579048	3.700754	8.727036	-10.830871	55.207553	55.092304	80.045537	23.644180	6.195286	10.684056	-22.285586	72.129321	63.774253	57.308033	1.772923	-17.663967
0.118644	3.585819	-4.463584	82.433721	0.150490	0.975445	0.379374	-2.531507	1.091361	-9.186518	1.846713	0.032231	21.880647	15.547015	0.000000	-1.770968	1.333810	-0.864118	6.543250	0.114201	18.679185	-14.869570	0.000000	0.140914	0.211627	0.817171	0.261691	0.281464	0.868245	0.231507	0.514549	0.868245	0.161050	0.514549	0.715025	0.130852	0.431549	0.663952	0.080518	0.327810	0.612879	1.006532	2.393965	4.544862	0.000000	0.000000	23.475757	-3.604735	3.778126	8.762859	-10.951601	55.257551	55.292856	79.900137	23.698428	6.498044	10.629848	-22.356746	72.192709	63.941084	57.825708	1.563223	-18.018684
0.135593	3.743604	-4.478388	82.488470	0.150126	0.975420	0.379384	-2.566521	1.241879	-9.244179	1.820952	0.031782	21.772423	15.532477	0.000000	-1.806619	1.178267	-0.834487	6.468580	0.112898	18.805122	-14.720004	0.000000	0.140641	0.232923	0.807140	0.261185	0.309787	0.857586	0.231060	0.566328	0.857586	0.160739	0.566328	0.706247	0.130600	0.474976	0.655801	0.080362	0.360797	0.605355	1.004587	2.634868	4.489070	0.000000	0.000000	23.482338	-3.654152	3.784735	8.703802	-11.090783	55.162247	55.556682	79.394741	23.672042	7.020723	10.607104	-22.388537	72.217023	64.060144	58.787199	1.403474	-18.370021
0.152542	3.909133	-4.497919	82.567194	0.149711	0.975412	0.379355	-2.576725	1.396981	-9.334626	1.835675	0.032039	21.715208	15.552971	0.000000	-1.832039	1.011670	-0.839030	6.399473	0.111692	18.985038	-14.503210	0.000000	0.141038	0.254870	0.802020	0.261921	0.338977	0.852146	0.231711	0.619690	0.852146	0.161192	0.619690	0.701767	0.130968	0.519730	0.651641	0.080589	0.394793	0.601515	1.007418	2.883137	4.460595	0.000000	0.000000	23.492847	-3.720244	3.730441	8.569768	-11.241078	54.970062	55.844268	78.467953	23.545770	7.728557	10.599828	-22.368641	72.181033	64.109743	60.074954	1.296463	-18.704788
0.169492	4.078848	-4.520356	82.666055	0.149261	0.975413	0.379292	-2.568178	1.554029	-9.456403	1.882627	0.032858	21.700537	15.603378	0.000000	-1.852547	0.838756	-0.859266	6.329861	0.110477	19.192408	-14.251437	0.000000	0.141876	0.276927	0.800171	0.263478	0.368313	0.850182	0.233088	0.673321	0.850182	0.162150	0.673321	0.700150	0.131746	0.564710	0.650139	0.081068	0.428960	0.600128	1.013405	3.132657	4.450311	0.000000	0.000000	23.507793	-3.795957	3.625102	8.380659	-11.395151	54.729419	56.116101	77.058378	23.300361	8.586778	10.592024	-22.284742	72.063508	64.068192	61.571421	1.244977	-19.009796
0.186441	4.236250	-4.538316	82.770849	0.148795	0.975412	0.379169	-2.558149	1.695873	-9.609887	1.940483	0.033868	21.729005	15.692830	0.000000	-1.887707	0.684744	-0.812953	6.224648	0.108641	19.354199	-14.088453	0.000000	0.142682	0.297336	0.805461	0.264974	0.395456	0.855802	0.234412	0.722942	0.855802	0.163071	0.722942	0.704778	0.132494	0.606327	0.654437	0.081528	0.460573	0.604096	1.019160	3.363520	4.479732	0.000000	0.000000	23.524721	-3.886942	3.469717	8.142192	-11.520546	54.511704	56.368661	74.160457	22.792757	9.817127	10.514612	-22.061441	71.787944	63.925332	62.691724	1.141490	-19.399611
0.203390	4.390400	-4.550627	82.892549	0.148329	0.975415	0.379037	-2.551292	1.833766	-9.794930	2.009547	0.035073	21.775866	15.792999	0.000000	-1.933832	0.535676	-0.728234	6.119649	0.106808	19.425697	-14.009805	0.000000	0.143049	0.315815	0.805699	0.265656	0.420034	0.856056	0.235015	0.767872	0.856056	0.163491	0.767872	0.704987	0.132835	0.644009	0.654631	0.081738	0.489197	0.604275	1.021785	3.572560	4.481059	0.000000	0.000000	23.534292	-3.946428	3.264826	7.910774	-11.628224	54.406466	56.514631	70.503036	22.130863	11.149726	10.368022	-21.718948	71.285060	63.620737	63.674609	1.217615	-19.700012
0.220339	4.541030	-4.551384	83.021056	0.147881	0.975413	0.378906	-2.555636	1.967847	-10.014135	2.083373	0.036362	21.830165	15.910456	0.000000	-2.006091	0.393706	-0.606040	5.992109	0.104582	19.405799	-14.012577	0.000000	0.141769	0.332445	0.803517	0.263280	0.442152	0.853737	0.232913	0.808306	0.853737	0.162028	0.808306	0.703078	0.131647	0.677921	0.652858	0.081007	0.514957	0.602638	1.012644	3.760682	4.468923	0.000000	0.000000	23.542375	-3.986298	3.006944	7.688382	-11.719540	54.418538	56.510023	66.018438	21.288596	12.477401	10.191513	-21.247226	70.644136	63.098219	64.482884	1.440534	-19.937975
0.237288	4.681379	-4.553103	83.154002	0.147490	0.975365	0.378770	-2.550933	2.093979	-10.280554	2.176700	0.037991	21.899817	16.042676	0.000000	-2.082154	0.257740	-0.476786	5.858650	0.102253	19.340224	-14.023341	0.000000	0.140715	0.346475	0.800435	0.261322	0.460812	0.850463	0.231181	0.842419	0.850463	0.160823	0.842419	0.700381	0.130668	0.706532	0.650354	0.080405	0.536690	0.600327	1.005114	3.919394	4.451782	0.000000	0.000000	23.559583	-4.008458	2.706031	7.472565	-11.789685	54.626603	56.288229	60.756937	20.255294	13.622047	10.001547	-20.657844	69.906697	62.338639	65.126533	1.775099	-20.078233
0.254237	4.812883	-4.553034	83.298026	0.147150	0.975258	0.378616	-2.561536	2.217843	-10.559121	2.244953	0.039182	21.950134	16.157134	0.000000	-2.179465	0.134814	-0.241633	5.680731	0.099147	19.192567	-14.182048	0.000000	0.139099	0.359120	0.780475	0.258320	0.477629	0.829255	0.228525	0.873164	0.829255	0.158976	0.873164	0.682916	0.129167	0.732317	0.634136	0.079481	0.556277	0.585356	0.993567	4.062436	4.340769	0.000000	0.000000	23.600184	-3.985778	2.495558	7.378065	-11.835082	55.210586	55.704970	54.990946	19.048990	14.394880	9.715531	-19.970692	68.947483	61.363238	65.481748	2.138765	-20.023227
0.271186	4.934734	-4.557856	83.442149	0.146896	0.975059	0.378434	-2.576454	2.339621	-10.854839	2.294677	0.040050	21.987426	16.267200	0.000000	-2.289324	0.019100	0.033384	5.463336	0.095353	19.026330	-14.380913	0.000000	0.137632	0.370642	0.750507	0.255596	0.492954	0.797414	0.226116	0.901179	0.797414	0.157300	0.901179	0.656694	0.127805	0.755813	0.609787	0.078643	0.574124	0.562880	0.983092	4.192776	4.174096	0.000000	0.000000	23.684840	-3.944431	2.369210	7.338476	-11.844573	55.901833	54.743988	49.479568	17.684625	14.763664	9.345455	-19.196973	67.748914	60.170091	65.675181	2.570739	-19.635658
0.288136	5.049912	-4.576458	83.592989	0.146728	0.974742	0.378230	-2.586740	2.465362	-11.136671	2.321263	0.040514	22.007897	16.337126	0.000000	-2.401137	-0.094435	0.374303	5.207729	0.090892	18.851181	-14.634540	0.000000	0.137442	0.381980	0.708595	0.255244	0.508034	0.752882	0.225804	0.928747	0.752882	0.157083	0.928747	0.620021	0.127629	0.778934	0.575734	0.078534	0.591687	0.531446	0.981736	4.321037	3.940993	0.000000	0.000000	23.825634	-3.891281	2.365509	7.332789	-11.814799	56.476460	53.417567	44.956437	16.247138	14.769292	8.907533	-18.363359	66.352691	58.769391	65.752226	3.010207	-18.936172
0.305085	5.160522	-4.606492	83.735034	0.146675	0.974304	0.378025	-2.591053	2.596811	-11.367371	2.323246	0.040548	22.011737	16.356793	0.000000	-2.519920	-0.208496	0.765864	4.911583	0.085723	18.674207	-14.940587	0.000000	0.137970	0.393395	0.658902	0.256224	0.523215	0.700083	0.226671	0.956500	0.700083	0.157686	0.956500	0.576539	0.128119	0.802210	0.535358	0.078836	0.609368	0.494176	0.985505	4.450158	3.664615	0.000000	0.000000	24.024518	-3.829359	2.484820	7.355475	-11.765377	56.868981	51.789689	41.864738	14.770145	14.429959	8.429012	-17.508967	64.832822	57.190074	65.670543	3.490773	-17.858253
0.322034	5.271751	-4.648074	83.874872	0.146734	0.973763	0.377854	-2.587230	2.740634	-11.537058	2.299056	0.040126	21.997010	16.318878	0.000000	-2.640366	-0.331320	1.197491	4.584600	0.080016	18.509114	-15.268052	0.000000	0.139149	0.404954	0.601239	0.258413	0.538589	0.638816	0.228607	0.984606	0.638816	0.159033	0.984606	0.526084	0.129213	0.825783	0.488507	0.079509	0.627274	0.450929	0.993924	4.580926	3.343911	0.000000	0.000000	24.265058	-3.764454	2.684280	7.432532	-11.711422	57.223858	49.905103	40.368347	13.194182	13.708083	7.946030	-16.666042	63.294504	55.410520	65.590646	4.029719	-16.552419
